<svg xmlns="http://www.w3.org/2000/svg" fill="none" viewBox="101.57 90.02 199.6 180.7">
<path fill="#000000" opacity="1.000000" stroke="transparent"/>
<path fill="#FDFDFD" opacity="1.000000" stroke="transparent" d=" M162.677063,130.635269   C167.685959,121.971497 172.422501,113.572868 177.321487,105.270096   C188.920273,85.612556 213.658188,85.591385 225.087997,105.303169   C249.020081,146.576355 272.868713,187.898010 296.696045,229.231827   C307.484650,247.947037 295.131226,269.715485 273.319183,269.975922   C247.834885,270.280212 222.344193,270.049316 196.856262,270.049805   C175.033264,270.050232 153.190460,269.466492 131.392624,270.207092   C107.790337,271.008972 94.472443,247.186249 106.676109,227.137665   C125.946060,195.480423 143.942886,163.048203 162.677063,130.635269  M226.064499,214.552505   C231.589127,205.078506 237.248688,195.680008 242.601776,186.110046   C248.363281,175.810013 242.484207,165.789719 230.739639,165.747543   C211.263596,165.677597 191.787018,165.685776 172.310898,165.743347   C160.292038,165.778870 154.428207,175.969284 160.466461,186.473572   C169.989471,203.040054 179.612930,219.549881 189.330109,236.003220   C195.550293,246.535431 207.386627,246.414597 213.667236,235.856110   C217.742752,229.004654 221.710526,222.089096 226.064499,214.552505  z"/>
</svg>